<svg id="Layer_1" data-name="Layer 1" xmlns="http://www.w3.org/2000/svg" viewBox="0 0 196.3 131.6"><defs><style>.cls-1{fill:#fff;}.cls-2{fill:#fa0;}</style></defs><path class="cls-1" d="M63.12,32.66h5.63a18.53,18.53,0,0,1,6.59.85,6.68,6.68,0,0,1,3.19,2.73,8.46,8.46,0,0,1,1.16,4.52,7.64,7.64,0,0,1-1.52,4.85A7.88,7.88,0,0,1,74,48.3a23.71,23.71,0,0,1-5.59.44V60.55H63.12Zm5.31,10.9h1.69a9.18,9.18,0,0,0,2.77-.28,2.44,2.44,0,0,0,1.22-.94,2.75,2.75,0,0,0,.45-1.59,2.54,2.54,0,0,0-1.26-2.36,7.08,7.08,0,0,0-3.37-.55h-1.5Z"/><path class="cls-1" d="M83.11,39.92h4.43v2.6a5.53,5.53,0,0,1,1.92-2.33,4.59,4.59,0,0,1,2.61-.8,4.94,4.94,0,0,1,2.11.53l-1.61,4.46a3.66,3.66,0,0,0-1.5-.46,2.38,2.38,0,0,0-2,1.48q-.83,1.49-.83,5.8l0,1v8.34H83.11Z"/><path class="cls-2" d="M98.75,32.22a3.22,3.22,0,0,1,2.34,1,3.25,3.25,0,0,1,0,4.62,3.18,3.18,0,0,1-2.31,1,3.23,3.23,0,0,1-2.35-1,3.19,3.19,0,0,1-1-2.35,3,3,0,0,1,1-2.27A3.19,3.19,0,0,1,98.75,32.22Z"/><rect class="cls-1" x="96.17" y="40.48" width="5.18" height="20.07"/><path class="cls-1" d="M118.67,42.81l-3.2,3.2c-1.31-1.29-2.49-1.93-3.55-1.93a2.18,2.18,0,0,0-1.36.37,1.1,1.1,0,0,0-.5.92,1.12,1.12,0,0,0,.32.76,5.39,5.39,0,0,0,1.54,1l1.9.95a11.22,11.22,0,0,1,4.11,3,6.27,6.27,0,0,1-.9,8.19,7.72,7.72,0,0,1-5.41,1.84,8.6,8.6,0,0,1-7.21-3.53l3.19-3.46a7.34,7.34,0,0,0,2.13,1.71,4.71,4.71,0,0,0,2.17.66,2.6,2.6,0,0,0,1.65-.5,1.43,1.43,0,0,0,.63-1.14c0-.79-.76-1.57-2.26-2.33l-1.74-.87q-5-2.52-5-6.31a5.46,5.46,0,0,1,1.89-4.18,6.83,6.83,0,0,1,4.82-1.74,8.46,8.46,0,0,1,3.78.88A8.35,8.35,0,0,1,118.67,42.81Z"/><path class="cls-1" d="M143.31,44.09,139,46.46a7.35,7.35,0,0,0-2.41-1.76,7.16,7.16,0,0,0-2.78-.49,6.48,6.48,0,0,0-4.69,1.73,5.89,5.89,0,0,0-1.8,4.44,5.73,5.73,0,0,0,1.73,4.3,6.25,6.25,0,0,0,4.54,1.66A6.62,6.62,0,0,0,139,54l4.08,2.8a11.16,11.16,0,0,1-9.37,4.31q-5.44,0-8.52-3.22a10.73,10.73,0,0,1,2.6-17,12.49,12.49,0,0,1,6-1.44,12.1,12.1,0,0,1,5.51,1.23A10.39,10.39,0,0,1,143.31,44.09Z"/><path class="cls-2" d="M150,31.43a3.16,3.16,0,0,1,2.33,1,3.41,3.41,0,0,1,0,4.75,3.12,3.12,0,0,1-2.31,1,3.17,3.17,0,0,1-2.35-1,3.34,3.34,0,0,1-1-2.42,3.29,3.29,0,0,1,3.29-3.3Z"/><rect class="cls-1" x="147.41" y="39.92" width="5.18" height="20.63"/><path class="cls-1" d="M156.72,32h5.17V60.55h-5.17Z"/><path class="cls-1" d="M166,32h5.18V60.55H166Z"/><path class="cls-1" d="M191.12,39.92h5.18V60.55h-5.18V58.37a10.35,10.35,0,0,1-3,2.08,8.6,8.6,0,0,1-3.31.63,9.16,9.16,0,0,1-6.91-3.1A10.83,10.83,0,0,1,175,50.27a11,11,0,0,1,2.83-7.82,9,9,0,0,1,6.85-3.06,8.79,8.79,0,0,1,3.48.7,9.42,9.42,0,0,1,3,2.11Zm-5.44,4.25a5.22,5.22,0,0,0-4,1.7,6.1,6.1,0,0,0-1.59,4.35,6.18,6.18,0,0,0,1.62,4.4,5.21,5.21,0,0,0,4,1.72,5.31,5.31,0,0,0,4.05-1.7,6.19,6.19,0,0,0,1.6-4.44,6,6,0,0,0-1.6-4.36A5.42,5.42,0,0,0,185.68,44.17Z"/><path class="cls-1" d="M63.14,96.48V68.6h4.39a22.71,22.71,0,0,1,5.58.49,7.41,7.41,0,0,1,4,2.46,6.47,6.47,0,0,1,1.48,4.25,6.18,6.18,0,0,1-.67,2.89,7.37,7.37,0,0,1-2.19,2.44,8.72,8.72,0,0,1,3.72,3,7.6,7.6,0,0,1,1.17,4.24,7.87,7.87,0,0,1-1.21,4.28,7.74,7.74,0,0,1-3.13,2.89,12,12,0,0,1-5.3,1Zm5.31-22.82v5.87h1.16a4.31,4.31,0,0,0,2.88-.81,2.77,2.77,0,0,0,1-2.22,2.61,2.61,0,0,0-.9-2.08,4.09,4.09,0,0,0-2.72-.76Zm0,10.61v7.15h1.33c2.21,0,3.69-.28,4.46-.83a2.82,2.82,0,0,0,1.15-2.43A3.39,3.39,0,0,0,74,85.32a7.43,7.43,0,0,0-4.49-1Z"/><path class="cls-1" d="M100.32,75.86h5.17V96.48h-5.17V94.3a10.26,10.26,0,0,1-3,2.08A8.6,8.6,0,0,1,94,97a9.18,9.18,0,0,1-6.91-3.1,10.8,10.8,0,0,1-2.91-7.7A11.07,11.07,0,0,1,87,78.38a9,9,0,0,1,6.85-3,8.7,8.7,0,0,1,3.49.7,9.5,9.5,0,0,1,3,2.1ZM94.88,80.1a5.25,5.25,0,0,0-4,1.7,6.1,6.1,0,0,0-1.59,4.35,6.18,6.18,0,0,0,1.62,4.4,5.23,5.23,0,0,0,4,1.72,5.33,5.33,0,0,0,4-1.69,6.22,6.22,0,0,0,1.61-4.45,6,6,0,0,0-1.61-4.36A5.4,5.4,0,0,0,94.88,80.1Z"/><path class="cls-1" d="M110.76,67.89h5.18V84.36l7.62-8.5h6.5l-8.89,9.88,10,10.74H124.7L115.94,87v9.5h-5.18Z"/><path class="cls-1" d="M153.91,87.67H137.29a5.52,5.52,0,0,0,1.92,3.49,6,6,0,0,0,4,1.3,6.89,6.89,0,0,0,5-2l4.36,2a10.32,10.32,0,0,1-3.91,3.42,12.22,12.22,0,0,1-5.4,1.11A10.69,10.69,0,0,1,135.33,94a10.44,10.44,0,0,1-3.05-7.67,10.78,10.78,0,0,1,3-7.84A10.24,10.24,0,0,1,143,75.33a10.64,10.64,0,0,1,7.93,3.11,11.3,11.3,0,0,1,3.05,8.24Zm-5.17-4.08a5.28,5.28,0,0,0-2-2.81,5.84,5.84,0,0,0-3.5-1.08,6.21,6.21,0,0,0-3.8,1.22,6.79,6.79,0,0,0-1.9,2.67Z"/><path class="cls-1" d="M170.73,78.74l-3.21,3.2A5.4,5.4,0,0,0,164,80a2.23,2.23,0,0,0-1.37.37,1.09,1.09,0,0,0-.49.92,1.11,1.11,0,0,0,.31.76A5.66,5.66,0,0,0,164,83l1.89,1A11.3,11.3,0,0,1,170,87a6,6,0,0,1,1.12,3.61,6,6,0,0,1-2,4.58A7.72,7.72,0,0,1,163.67,97a8.6,8.6,0,0,1-7.2-3.52L159.66,90a7.05,7.05,0,0,0,2.13,1.71,4.68,4.68,0,0,0,2.17.66,2.6,2.6,0,0,0,1.65-.5,1.39,1.39,0,0,0,.62-1.13q0-1.2-2.25-2.34l-1.75-.87q-5-2.52-5-6.31a5.48,5.48,0,0,1,1.89-4.18,6.8,6.8,0,0,1,4.82-1.73,8.38,8.38,0,0,1,6.79,3.41Z"/><rect class="cls-2" y="40.87" width="56.11" height="5.5"/><rect class="cls-2" y="49.12" width="56.11" height="3.3"/><rect class="cls-2" y="55.18" width="56.11" height="3.3"/><rect class="cls-2" y="61.23" width="56.11" height="3.3"/><rect class="cls-2" y="67.28" width="56.11" height="3.3"/><rect class="cls-2" y="73.33" width="56.11" height="3.3"/><rect class="cls-2" y="79.38" width="56.11" height="3.3"/><rect class="cls-2" y="85.43" width="56.11" height="3.3"/><rect class="cls-2" y="91.48" width="56.11" height="5.5"/><circle class="cls-2" cx="4.95" cy="35.37" r="2.75"/><circle class="cls-2" cx="11.55" cy="35.37" r="2.75"/><circle class="cls-2" cx="18.15" cy="35.37" r="2.75"/><circle class="cls-2" cx="24.75" cy="35.37" r="2.75"/><circle class="cls-2" cx="31.36" cy="35.37" r="2.75"/><circle class="cls-2" cx="37.96" cy="35.37" r="2.75"/><circle class="cls-2" cx="44.56" cy="35.37" r="2.75"/><circle class="cls-2" cx="51.16" cy="35.37" r="2.75"/></svg>